<svg width="2707" height="507" viewBox="0 0 2707 507" fill="none" xmlns="http://www.w3.org/2000/svg">
<path d="M498.488 507H357.488V439H286.488V367H215.488V294H145.488V507H0.488281V9H141.488V77H213.488V148H284.488V221H354.488V9H498.488V507Z" fill="#C2B4F5"/>
<path d="M1048.29 435H980.293V507H622.293V439H550.293V9H691.293V435H904.293V9H1048.29V435Z" fill="#C2B4F5"/>
<path d="M1598.1 364H1530.1V435H1459.1V507H1100.1V9H1455.1V77H1527.1V148H1598.1V364ZM1455.1 364V148H1384.1V80H1243.1V435H1387.1V364H1455.1Z" fill="#C2B4F5"/>
<path d="M2147.9 507H1792.9V439H1721.9V367H1649.9V151H1717.9V80H1789.9V9H2147.9V78H1865.9V149H1792.9V362H1862.9V435H2005.9V296H1935.9V223H2147.9V507Z" fill="#C2B4F5"/>
<path d="M2706.71 503H2202.71V0H2706.71V70H2347.71V213H2562.71V287H2347.71V430H2706.71V503Z" fill="#C2B4F5"/>
</svg>
